<svg xmlns="http://www.w3.org/2000/svg" viewBox="0 0 256 256"><rect width="256" height="256" rx="54" fill="#ffffff"/><path d="M0 72l72-30 58 28 66-31 60 29v188H0z" fill="#e8e8e8"/><path d="M72 42v180M130 70v180M196 39v184" stroke="#fff" stroke-width="10"/><path d="M0 167l76-45 58 27 62-38 60 23" fill="none" stroke="#4fb96e" stroke-width="33"/><path d="M0 207l83-48 58 25 115-69" fill="none" stroke="#f3cf48" stroke-width="20"/><path d="M25 0l168 256" stroke="#468ce5" stroke-width="27"/><path d="M128 55c-30 0-54 23-54 52 0 42 54 91 54 91s54-49 54-91c0-29-24-52-54-52z" fill="#e63c36"/><circle cx="128" cy="107" r="20" fill="white"/></svg>